<svg width="463" height="652" viewBox="0 0 463 652" fill="none" xmlns="http://www.w3.org/2000/svg">
<path d="M109 506V146H437.5V186.5H149.5V305.5H381V346.5H149.5V465.5H437.5V506H109Z" fill="#008000"/>
<path d="M109 506H104V511H109V506ZM109 146V141H104V146H109ZM437.5 146H442.5V141H437.5V146ZM437.5 186.5V191.5H442.5V186.5H437.5ZM149.5 186.5V181.5H144.5V186.5H149.5ZM149.5 305.5H144.5V310.5H149.5V305.5ZM381 305.5H386V300.5H381V305.5ZM381 346.5V351.5H386V346.5H381ZM149.5 346.5V341.5H144.5V346.5H149.5ZM149.5 465.5H144.5V470.5H149.5V465.5ZM437.5 465.5H442.5V460.5H437.5V465.5ZM437.5 506V511H442.5V506H437.5ZM114 506V146H104V506H114ZM109 151H437.5V141H109V151ZM432.5 146V186.5H442.5V146H432.5ZM437.5 181.5H149.5V191.5H437.5V181.5ZM144.5 186.5V305.5H154.5V186.5H144.5ZM149.5 310.5H381V300.5H149.5V310.5ZM376 305.5V346.5H386V305.5H376ZM381 341.5H149.5V351.5H381V341.5ZM144.5 346.5V465.5H154.5V346.5H144.5ZM149.5 470.5H437.5V460.5H149.5V470.5ZM432.5 465.5V506H442.5V465.5H432.5ZM437.5 501H109V511H437.5V501Z" fill="#FF0000"/>
<g filter="url(#filter0_d_1148_24)">
<path d="M312 146C325.333 146 337.5 149.167 348.5 155.5C359.167 162.167 367.833 170.833 374.5 181.5C380.833 192.5 384 204.667 384 218L384 434C384 447.333 380.833 459.333 374.5 470C367.833 481 359.167 489.667 348.5 496C337.5 502.667 325.333 506 312 506L25 506V433.5L295 433.5C300.333 433.5 304.5 432 307.5 429C310.5 426.333 312 422.167 312 416.5L312 235.5C312 230.167 310.5 226 307.5 223C304.5 220 300.333 218.5 295 218.5L25 218.5V146L312 146Z" fill="#0E469A"/>
<path d="M348.5 155.5L351.15 151.26L351.073 151.212L350.995 151.167L348.5 155.5ZM374.5 181.5L378.833 179.005L378.788 178.927L378.74 178.85L374.5 181.5ZM374.5 470L378.776 472.592L378.788 472.572L378.799 472.553L374.5 470ZM348.5 496L345.947 491.701L345.928 491.712L345.908 491.724L348.5 496ZM25 506H20V511H25V506ZM25 433.5V428.5H20V433.5H25ZM307.5 429L304.178 425.263L304.068 425.361L303.964 425.464L307.5 429ZM307.5 223L303.964 226.536L303.964 226.536L307.5 223ZM25 218.5H20V223.5H25V218.5ZM25 146V141H20V146H25ZM312 151C324.504 151 335.803 153.959 346.005 159.833L350.995 151.167C339.197 144.374 326.163 141 312 141V151ZM345.85 159.74C355.873 166.004 363.996 174.127 370.26 184.15L378.74 178.85C371.671 167.539 362.461 158.329 351.15 151.26L345.85 159.74ZM370.167 183.995C376.041 194.197 379 205.496 379 218H389C389 203.837 385.626 190.803 378.833 179.005L370.167 183.995ZM379 218L379 434H389L389 218H379ZM379 434C379 446.505 376.041 457.611 370.201 467.447L378.799 472.553C385.626 461.056 389 448.162 389 434H379ZM370.224 467.408C363.967 477.733 355.882 485.802 345.947 491.701L351.053 500.299C362.452 493.531 371.7 484.267 378.776 472.592L370.224 467.408ZM345.908 491.724C335.719 497.899 324.455 501 312 501V511C326.212 511 339.281 507.434 351.092 500.276L345.908 491.724ZM312 501L25 501V511L312 511V501ZM30 506V433.5H20V506H30ZM25 438.5L295 438.5V428.5L25 428.5V438.5ZM295 438.5C301.3 438.5 306.871 436.7 311.036 432.536L303.964 425.464C302.129 427.3 299.367 428.5 295 428.5V438.5ZM310.822 432.737C315.271 428.782 317 422.989 317 416.5H307C307 421.345 305.729 423.885 304.178 425.263L310.822 432.737ZM317 416.5L317 235.5H307L307 416.5H317ZM317 235.5C317 229.2 315.2 223.629 311.036 219.464L303.964 226.536C305.8 228.371 307 231.133 307 235.5H317ZM311.036 219.464C306.871 215.3 301.3 213.5 295 213.5V223.5C299.367 223.5 302.129 224.7 303.964 226.536L311.036 219.464ZM295 213.5L25 213.5V223.5L295 223.5V213.5ZM30 218.5V146H20V218.5H30ZM25 151L312 151V141L25 141V151Z" fill="#FF0000"/>
</g>
<defs>
<filter id="filter0_d_1148_24" x="21" y="146" width="367" height="368" filterUnits="userSpaceOnUse" color-interpolation-filters="sRGB">
<feFlood flood-opacity="0" result="BackgroundImageFix"/>
<feColorMatrix in="SourceAlpha" type="matrix" values="0 0 0 0 0 0 0 0 0 0 0 0 0 0 0 0 0 0 127 0" result="hardAlpha"/>
<feOffset dy="4"/>
<feGaussianBlur stdDeviation="2"/>
<feComposite in2="hardAlpha" operator="out"/>
<feColorMatrix type="matrix" values="0 0 0 0 0 0 0 0 0 0 0 0 0 0 0 0 0 0 0.25 0"/>
<feBlend mode="normal" in2="BackgroundImageFix" result="effect1_dropShadow_1148_24"/>
<feBlend mode="normal" in="SourceGraphic" in2="effect1_dropShadow_1148_24" result="shape"/>
</filter>
</defs>
</svg>
